<svg width="93" height="20" viewBox="0 0 93 20" fill="none" xmlns="http://www.w3.org/2000/svg">
<path d="M9.523 20H8.84695C3.94554 20 0.987793 18.1408 0.987793 12.7324V11.7746C0.987793 6.3662 3.94554 4.50704 8.84695 4.50704H9.523C14.1146 4.50704 16.5089 6.28169 17.1005 9.52113H13.5512C12.8751 7.94366 11.5512 7.49296 9.26948 7.49296C6.28357 7.49296 4.50892 8.22535 4.50892 11.9437V12.5634C4.50892 16.2817 6.28357 17.0141 9.26948 17.0141C11.5512 17.0141 12.8751 16.5634 13.5512 14.9859H17.1005C16.5089 18.2254 14.1146 20 9.523 20Z" fill="#0B0A0A"/>
<path d="M34.7519 10.4789V19.7183H31.2589V17.3239H31.1462C30.442 18.9296 28.7519 20 25.1181 20C21.0899 20 18.8645 18.4507 18.8645 15.3803V15.2113C18.8645 12.3944 20.4702 10.9296 23.9631 10.7887L31.2307 10.4789V10.1972C31.2307 7.60563 29.8223 7.07042 27.0617 7.07042C24.6674 7.07042 23.5406 7.6338 23.0054 9.09859H19.4561C20.1603 6.02817 22.3012 4.50704 27.0336 4.50704H27.5124C32.4702 4.50704 34.7519 5.94366 34.7519 10.4789ZM22.4138 15.0986V15.2394C22.4138 16.9014 23.766 17.5493 26.1322 17.5493C29.3998 17.5493 31.2307 16.1972 31.2307 13.8028V12.8169L25.1181 13.0704C23.2307 13.1549 22.4138 13.7183 22.4138 15.0986Z" fill="#0B0A0A"/>
<path d="M46.5965 4.78873H47.6669V7.85916H45.8923C42.9064 7.85916 41.1599 8.61972 41.1599 11.831V19.7183H37.6388V4.78873H41.1599V7.29578H41.2726C41.9486 5.52113 43.6388 4.78873 46.5965 4.78873Z" fill="#0B0A0A"/>
<path d="M65.9491 0V19.7183H62.4561V17.3521H62.3434C61.5829 19.0141 60.0617 20 56.7941 20H56.3716C52.0336 20 48.9631 18.338 48.9631 12.7606V11.7746C48.9631 6.19718 52.0336 4.50704 56.3716 4.50704H56.7941C60.0617 4.50704 61.5829 5.49296 62.3434 7.15493H62.4561V0H65.9491ZM57.4702 17.0141C60.6814 17.0141 62.4561 16.338 62.4561 12.5352V12C62.4561 8.14084 60.6814 7.49296 57.4702 7.49296C54.2307 7.49296 52.4843 8.14084 52.4843 12V12.507C52.4843 16.3662 54.2307 17.0141 57.4702 17.0141Z" fill="#0B0A0A"/>
<path d="M82.6883 9.6338L92.0122 19.7183H86.9981L79.984 12H79.8432L72.8009 19.7183H68.0122L77.3362 9.60563L68.4347 0H73.4207L80.0686 7.23944H80.1812L86.8854 0H91.6742L82.6883 9.6338Z" fill="#0B0A0A"/>
</svg>
