<svg width="92" height="20" viewBox="0 0 92 20" fill="none" xmlns="http://www.w3.org/2000/svg">
<path d="M8.53521 20H7.85915C2.95775 20 0 18.1408 0 12.7324V11.7746C0 6.3662 2.95775 4.50704 7.85915 4.50704H8.53521C13.1268 4.50704 15.5211 6.28169 16.1127 9.52113H12.5634C11.8873 7.94366 10.5634 7.49296 8.28169 7.49296C5.29577 7.49296 3.52113 8.22535 3.52113 11.9437V12.5634C3.52113 16.2817 5.29577 17.0141 8.28169 17.0141C10.5634 17.0141 11.8873 16.5634 12.5634 14.9859H16.1127C15.5211 18.2254 13.1268 20 8.53521 20Z" fill="#FCFAF9"/>
<path d="M33.7641 10.4789V19.7183H30.2711V17.3239H30.1584C29.4542 18.9296 27.7641 20 24.1303 20C20.1021 20 17.8768 18.4507 17.8768 15.3803V15.2113C17.8768 12.3944 19.4824 10.9296 22.9753 10.7887L30.243 10.4789V10.1972C30.243 7.60563 28.8345 7.07042 26.0739 7.07042C23.6796 7.07042 22.5528 7.6338 22.0176 9.09859H18.4683C19.1725 6.02817 21.3134 4.50704 26.0458 4.50704H26.5246C31.4824 4.50704 33.7641 5.94366 33.7641 10.4789ZM21.4261 15.0986V15.2394C21.4261 16.9014 22.7782 17.5493 25.1444 17.5493C28.412 17.5493 30.243 16.1972 30.243 13.8028V12.8169L24.1303 13.0704C22.243 13.1549 21.4261 13.7183 21.4261 15.0986Z" fill="#FCFAF9"/>
<path d="M45.6087 4.78873H46.6791V7.85916H44.9045C41.9186 7.85916 40.1721 8.61972 40.1721 11.831V19.7183H36.651V4.78873H40.1721V7.29578H40.2848C40.9608 5.52113 42.651 4.78873 45.6087 4.78873Z" fill="#FCFAF9"/>
<path d="M64.9613 0V19.7183H61.4683V17.3521H61.3556C60.5951 19.0141 59.0739 20 55.8063 20H55.3838C51.0458 20 47.9753 18.338 47.9753 12.7606V11.7746C47.9753 6.19718 51.0458 4.50704 55.3838 4.50704H55.8063C59.0739 4.50704 60.5951 5.49296 61.3556 7.15493H61.4683V0H64.9613ZM56.4824 17.0141C59.6937 17.0141 61.4683 16.338 61.4683 12.5352V12C61.4683 8.14084 59.6937 7.49296 56.4824 7.49296C53.243 7.49296 51.4965 8.14084 51.4965 12V12.507C51.4965 16.3662 53.243 17.0141 56.4824 17.0141Z" fill="#FCFAF9"/>
<path d="M81.7005 9.6338L91.0244 19.7183H86.0103L78.9963 12H78.8554L71.8131 19.7183H67.0244L76.3484 9.60563L67.447 0H72.4329L79.0808 7.23944H79.1934L85.8977 0H90.6864L81.7005 9.6338Z" fill="#FCFAF9"/>
</svg>
